# xmcd CD database file
#
# Track frame offsets:
#	150
#	2087
#	40894
#	99306
#	159418
#	209710
#	225730
#	279387
#
# Disc length: 3760 seconds
#
# Revision: 0
# Processed by: cddbd v1.5.1PL0 Copyright (c) Steve Scherf et al.
# Submitted via: CDex 1.51
#
DISCID=620eae08
DTITLE=Ed Blackwell Project - What It Is?
DYEAR=1999
DGENRE=Jazz
TTITLE0=Introduction
TTITLE1='nette
TTITLE2=Pettiford Bridge
TTITLE3=Beau Regard
TTITLE4=Thumbs Up
TTITLE5=Mallet Song
TTITLE6=Rosa Takes A Stand (For Rosa Parks)
TTITLE7=Applause
EXTD=YEAR: 1999
EXTT0=
EXTT1=
EXTT2=
EXTT3=
EXTT4=
EXTT5=
EXTT6=
EXTT7=
PLAYORDER=
